<svg width="640" height="800" viewBox="0 0 640 800" fill="none" xmlns="http://www.w3.org/2000/svg">
  <rect width="640" height="800" rx="48" fill="url(#bg)"/>
  <circle cx="320" cy="226" r="118" fill="url(#face)"/>
  <path d="M186 240C186 138 264 92 332 92C418 92 466 162 466 248V302H186V240Z" fill="#191022"/>
  <path d="M172 738C172 590 238 486 320 486C402 486 468 590 468 738V800H172V738Z" fill="url(#dress)"/>
  <path d="M256 310C264 370 289 408 320 408C351 408 376 370 384 310H256Z" fill="#E4BC95"/>
  <circle cx="278" cy="230" r="10" fill="#0F1726"/>
  <circle cx="360" cy="230" r="10" fill="#0F1726"/>
  <path d="M290 286C309 299 331 299 350 286" stroke="#9A5F58" stroke-width="8" stroke-linecap="round"/>
  <defs>
    <linearGradient id="bg" x1="78" y1="70" x2="562" y2="750" gradientUnits="userSpaceOnUse">
      <stop stop-color="#1B243B"/>
      <stop offset="0.5" stop-color="#12192C"/>
      <stop offset="1" stop-color="#4D3557"/>
    </linearGradient>
    <linearGradient id="face" x1="246" y1="142" x2="394" y2="334" gradientUnits="userSpaceOnUse">
      <stop stop-color="#F0D1AF"/>
      <stop offset="1" stop-color="#C98D69"/>
    </linearGradient>
    <linearGradient id="dress" x1="192" y1="500" x2="446" y2="790" gradientUnits="userSpaceOnUse">
      <stop stop-color="#8CB8FF"/>
      <stop offset="1" stop-color="#38507B"/>
    </linearGradient>
  </defs>
</svg>
