<svg width="640" height="800" viewBox="0 0 640 800" fill="none" xmlns="http://www.w3.org/2000/svg">
  <rect width="640" height="800" rx="48" fill="url(#bg)"/>
  <circle cx="320" cy="228" r="118" fill="url(#face)"/>
  <path d="M192 232C192 148 253 90 329 90C401 90 450 147 450 214V276H192V232Z" fill="#101521"/>
  <path d="M173 744C173 575 239 480 320 480C401 480 467 575 467 744V800H173V744Z" fill="url(#suit)"/>
  <path d="M255 310C262 368 288 408 320 408C352 408 378 368 385 310H255Z" fill="#DDB39A"/>
  <circle cx="280" cy="232" r="10" fill="#0F1726"/>
  <circle cx="360" cy="232" r="10" fill="#0F1726"/>
  <path d="M292 283C309 294 331 294 348 283" stroke="#8E5B4A" stroke-width="8" stroke-linecap="round"/>
  <path d="M278 484L320 548L362 484" stroke="#F7F0E4" stroke-width="14" stroke-linecap="round" stroke-linejoin="round"/>
  <defs>
    <linearGradient id="bg" x1="72" y1="60" x2="552" y2="760" gradientUnits="userSpaceOnUse">
      <stop stop-color="#102338"/>
      <stop offset="0.58" stop-color="#0B1725"/>
      <stop offset="1" stop-color="#3A5B71"/>
    </linearGradient>
    <linearGradient id="face" x1="240" y1="138" x2="395" y2="330" gradientUnits="userSpaceOnUse">
      <stop stop-color="#F2CCB3"/>
      <stop offset="1" stop-color="#C88B66"/>
    </linearGradient>
    <linearGradient id="suit" x1="196" y1="488" x2="447" y2="788" gradientUnits="userSpaceOnUse">
      <stop stop-color="#1D3555"/>
      <stop offset="1" stop-color="#0C1422"/>
    </linearGradient>
  </defs>
</svg>
